<svg id="Layer_1" data-name="Layer 1" xmlns="http://www.w3.org/2000/svg" viewBox="0 0 112.92 112.92"><defs><style>.cls-1{fill:#c3511b;}</style></defs><title>logo footer</title><g id="guides"><path class="cls-1" d="M56.46,0a56.46,56.46,0,1,0,56.46,56.46A56.46,56.46,0,0,0,56.46,0Zm0,110.46a54,54,0,1,1,54-54,54,54,0,0,1-54,54Z" transform="translate(0 0)"/><path class="cls-1" d="M94.38,56.46A37.93,37.93,0,1,0,56.44,94.38h0A37.93,37.93,0,0,0,94.38,56.46ZM56.46,92A35.54,35.54,0,1,1,92,56.46h0A35.54,35.54,0,0,1,56.46,92Z" transform="translate(0 0)"/><path class="cls-1" d="M78.72,36.52a29.67,29.67,0,0,0-17.65-9.91l-3.86,3.86a.3.3,0,0,0,0,.41.25.25,0,0,0,.2.09A17.69,17.69,0,0,1,71.74,57l-.35.64V55.77A15.26,15.26,0,0,0,60.81,41.29l-3.58,3.58a.3.3,0,0,0,0,.41.25.25,0,0,0,.2.09A10.48,10.48,0,1,1,49,63.3l-2.87,2.87a.63.63,0,0,0,0,.88h0a15,15,0,0,0,10.19,4h.78A22.42,22.42,0,0,0,78.19,44.6l-.19-1,.48.94a24.58,24.58,0,0,1,2.7,11.25c0,9.75-9.54,17.67-21.27,17.67S38.65,65.53,38.65,55.78V48.93L45,55.25a.31.31,0,0,0,.44,0h0a.3.3,0,0,0,.08-.2V50.68L36.3,41.51,27,50.79v4.35a.31.31,0,0,0,.32.3h0a.32.32,0,0,0,.2-.08L34,49v6.83C34,68.16,45.65,78.2,60,78.2a29.36,29.36,0,0,0,9.34-1.5l1.27-.42-.82.51a25.36,25.36,0,0,1-10.4,3.75A24.87,24.87,0,0,1,31.65,58.92a23.77,23.77,0,0,1-.19-2.79l-4.1,4.1a.62.62,0,0,0-.18.55A29.56,29.56,0,1,0,78.72,36.52Z" transform="translate(0 0)"/><path class="cls-1" d="M46.25,15.5,49,14.93a1.31,1.31,0,0,0,1-1.55L49.12,9a1.2,1.2,0,0,0-1.31-1h-.24l-3,.62L46,15.31A.23.23,0,0,0,46.25,15.5Zm1.33-6.2a.23.23,0,0,1,.31.13h0v.09l.8,3.87a.26.26,0,0,1-.16.32h0L47,14l-.88-4.4Z" transform="translate(0 0)"/><path class="cls-1" d="M55.34,14.4H59v-1a.25.25,0,0,0-.25-.25h-2.4V11.48H58.5v-1a.25.25,0,0,0-.25-.25h-1.9V8.57H59v-1a.25.25,0,0,0-.25-.25L55,7.29v6.86a.25.25,0,0,0,.23.27h0Z" transform="translate(0 0)"/><path class="cls-1" d="M17,41.41,18.44,38l-1-.4a.25.25,0,0,0-.33.13h0L16.23,40l-1.5-.64.84-2-1-.41a.25.25,0,0,0-.33.13h0L13.5,38.8,12,38.16l1-2.43-1-.41a.25.25,0,0,0-.33.13h0l-1.45,3.38,6.31,2.7a.26.26,0,0,0,.35.08A.28.28,0,0,0,17,41.41Z" transform="translate(0 0)"/><path class="cls-1" d="M20.47,34.32l.58-.85-.92-.92L21,31.32l1,.44a.24.24,0,0,0,.3-.09l.64-.93-6.55-2.68a.22.22,0,0,0-.29.09l-.77,1.13,4.8,5.07a.25.25,0,0,0,.34,0h0Zm-1.16-2.59-2-2,2.57,1.12Z" transform="translate(0 0)"/><path class="cls-1" d="M14.78,49.37l.22-1-2.86-.6.21-1,2.82-.15a.26.26,0,0,0,.24-.21l.23-1.1-3.08.17A1.17,1.17,0,0,0,11.5,44.4L10,44a1.32,1.32,0,0,0-1.56,1l-.65,3.1,6.71,1.4A.26.26,0,0,0,14.78,49.37ZM11.2,45.94l-.32,1.54-1.59-.33.32-1.54a.25.25,0,0,1,.26-.24H10l.51.11.52.11a.25.25,0,0,1,.23.27h0A.11.11,0,0,1,11.2,45.94Z" transform="translate(0 0)"/><path class="cls-1" d="M14.17,58.62V55.7a1.32,1.32,0,0,0-1.32-1.32H11.36a.88.88,0,0,0-.75.53.88.88,0,0,0-.75-.53H8.38A1.32,1.32,0,0,0,7.06,55.7v3.17h6.86A.25.25,0,0,0,14.17,58.62ZM10,57.55H8.34V56a.25.25,0,0,1,.22-.28H9.69a.25.25,0,0,1,.3.18.17.17,0,0,1,0,.1Zm2.92,0H11.25V56a.25.25,0,0,1,.22-.28H12.6a.25.25,0,0,1,.28.22h0V56Z" transform="translate(0 0)"/><path class="cls-1" d="M40.31,17.53l1-.4-2.56-6.37a.25.25,0,0,0-.31-.15h0l-1,.4L40,17.4A.24.24,0,0,0,40.31,17.53Z" transform="translate(0 0)"/><path class="cls-1" d="M24.92,23.34l3.38,1.42a.23.23,0,0,0,.25,0l.93-.88L25.89,22.4,24.71,19a.24.24,0,0,0-.31-.13h-.07l-.77.74,1.3,3.59Z" transform="translate(0 0)"/><path class="cls-1" d="M26.24,26.92l.78-.74-4.73-5a.24.24,0,0,0-.35,0h0l-.77.73,4.74,5a.25.25,0,0,0,.34,0h0Z" transform="translate(0 0)"/><path class="cls-1" d="M30.56,18.36a.37.37,0,0,0,.44.17l2.92-.91.62,1a.29.29,0,0,1-.08.39h0l-1.14.73a.29.29,0,0,1-.39-.08h0l-.34-.53a.25.25,0,0,0-.33-.09h0l-.89.57.61,1a1.32,1.32,0,0,0,1.81.41h0l1.61-1a1.32,1.32,0,0,0,.41-1.81h0L34.7,16.5a.39.39,0,0,0-.44-.18l-2.93.92-.52-.81a.29.29,0,0,1,.08-.39h0L32,15.17a.29.29,0,0,1,.39.08h0l.25.4a.25.25,0,0,0,.33.09h0l.89-.57-.52-.81a1.32,1.32,0,0,0-1.8-.35h0L30,15a1.32,1.32,0,0,0-.41,1.81h0Z" transform="translate(0 0)"/><path class="cls-1" d="M89.83,30.56l.78,1.12,2.74-1.14,1.31-.61m0,.06-1,1-1.89,2a.24.24,0,0,0,0,.3l.78,1.12L99,31.76a.25.25,0,0,0,.14-.31V31.4l-.59-.84-3.91,1.75-1,.48h0l.79-.74,2.86-2.93a.23.23,0,0,0,0-.31l-.1-.15-.54-.78v-.07l-3.91,1.75-1,.48h0l.79-.74,2.86-2.93a.23.23,0,0,0,0-.31l-.64-.93-4.83,5.18a.23.23,0,0,0-.06.25Z" transform="translate(0 0)"/><path class="cls-1" d="M105.85,55.56V54.29l-3.93,1.94H99a.26.26,0,0,0-.26.26h0v1h3.18l3.59,1.77a.24.24,0,0,0,.32-.12h0V58l-2.26-1.11,2.09-1A.32.32,0,0,0,105.85,55.56Z" transform="translate(0 0)"/><path class="cls-1" d="M86.25,26.59l.69-.75a.24.24,0,0,0,0-.34h0l-1.75-1.61,1.09-1.2,1.56,1.43.7-.76a.24.24,0,0,0,0-.34h0l-1.38-1.26,1.09-1.19,1.94,1.77.7-.76a.24.24,0,0,0,0-.34h0l-2.7-2.47-4.61,5a.24.24,0,0,0,0,.34h0Z" transform="translate(0 0)"/><path class="cls-1" d="M95,39.16l1.35,3.4,1-.38a.25.25,0,0,0,.15-.31h0l-.88-2.21,1.51-.6.78,2,1-.38a.25.25,0,0,0,.15-.31h0l-.69-1.73,1.5-.59,1,2.44,1-.38a.25.25,0,0,0,.15-.31h0l-1.35-3.4L95.3,38.86a.25.25,0,0,0-.3.19h0A.21.21,0,0,0,95,39.16Z" transform="translate(0 0)"/><path class="cls-1" d="M76.63,19.42l.9.55L79,17.49l.87.53-.8,2.69a.26.26,0,0,0,.11.29l1,.58L81,18.65A1.16,1.16,0,0,0,82.42,18l.8-1.31a1.3,1.3,0,0,0-.42-1.79h0L80.1,13.25l-3.55,5.81a.26.26,0,0,0,.08.36ZM80.55,15l1.34.82a.24.24,0,0,1,.13.33h0v.06l-.27.45-.28.45a.24.24,0,0,1-.33.13h-.06l-1.34-.8Z" transform="translate(0 0)"/><path class="cls-1" d="M97.58,46.77l.21,1,2.85-.57.2,1-2.52,1.24a.27.27,0,0,0-.14.28l.22,1.09,2.75-1.35a1.17,1.17,0,0,0,1.39.58l1.51-.3a1.31,1.31,0,0,0,1-1.55l-.62-3.09-6.68,1.34a.26.26,0,0,0-.17.33Zm5.89-.11.31,1.53a.26.26,0,0,1-.16.32h-.06l-.51.1-.52.1a.26.26,0,0,1-.32-.16v-.06l-.32-1.5Z" transform="translate(0 0)"/><path class="cls-1" d="M68.53,16l2.74,1A1.31,1.31,0,0,0,73,16.26l0-.05h0l.49-1.39a.83.83,0,0,0-.25-.88.87.87,0,0,0,.74-.53l.49-1.4a1.32,1.32,0,0,0-.79-1.68h0l-3-1-2.26,6.44A.24.24,0,0,0,68.53,16Zm2.92-5.12,1.48.52a.25.25,0,0,1,.19.3h0v.06l-.35,1a.25.25,0,0,1-.3.19h-.06l-1.48-.52Zm-1,2.73,1.48.52a.25.25,0,0,1,.19.3h0v.06l-.35,1a.25.25,0,0,1-.3.19h-.06L70,15.19Z" transform="translate(0 0)"/><path class="cls-1" d="M52.92,104a.28.28,0,0,0,.06-.39l-.68-.89-.63.43-1-1.27.45-.31h0a1.34,1.34,0,0,0,.5-.86l.1-.75a1.32,1.32,0,0,0-1.13-1.48l-.87-.12a1.32,1.32,0,0,0-1.48,1.13l-.1.75a1.33,1.33,0,0,0,.26,1l.26.34-.77.52a1.31,1.31,0,0,0-.51.87l-.13.92a1.32,1.32,0,0,0,1.13,1.48l1.59.22a1.33,1.33,0,0,0,1-.24h0l.38-.26.51.67a.28.28,0,0,0,.39.06h0l.9-.68-.63-.84Zm-3.44-4.07a.33.33,0,0,1,.37-.28h.37a.33.33,0,0,1,.28.37v.32a.35.35,0,0,1-.1.19h0l-.53.36-.35-.46a.37.37,0,0,1-.05-.23Zm.74,4.25h0a.28.28,0,0,1-.22,0L48.78,104a.29.29,0,0,1-.27-.33h0l.06-.4a.3.3,0,0,1,.12-.21l.87-.59,1.06,1.4Z" transform="translate(0 0)"/><path class="cls-1" d="M21.81,85.63,23,84.55l1.76,2,.77-.69a.24.24,0,0,0,0-.35h0l-2.46-2.74L18,87.31a.24.24,0,0,0,0,.35h0l2.46,2.74.77-.69a.24.24,0,0,0,0-.35h0l-1.6-1.78,1.21-1.09,1.42,1.58.77-.69A.24.24,0,0,0,23,87l0,0h0Z" transform="translate(0 0)"/><path class="cls-1" d="M67.85,103.4l-2.35.46-.31-1.6,2.09-.41-.2-1a.24.24,0,0,0-.27-.2h0L65,101l-.31-1.59,2.59-.5-.2-1a.24.24,0,0,0-.27-.2h0l-3.61.7,1.31,6.74a.24.24,0,0,0,.27.2h0l3.61-.7-.2-1a.24.24,0,0,0-.22-.26h-.07Z" transform="translate(0 0)"/><path class="cls-1" d="M28.44,88.33l-4.29,5.36a.24.24,0,0,0,0,.34h0L27,96.34l.64-.8a.24.24,0,0,0,0-.34h0L25.79,93.7l1-1.27,1.66,1.33L29.1,93a.24.24,0,0,0,0-.34h0l-1.46-1.17,1-1.27,2.06,1.65.65-.81a.24.24,0,0,0,0-.34h0Z" transform="translate(0 0)"/><path class="cls-1" d="M18.05,81.27l-.81-3,.83-.49a.29.29,0,0,1,.39.09h0L19.15,79a.29.29,0,0,1-.09.39h0l-.41.24a.26.26,0,0,0-.1.34h0l.54.91.83-.49a1.31,1.31,0,0,0,.46-1.79h0l-1-1.65a1.31,1.31,0,0,0-1.79-.46h0l-1.6,1a.38.38,0,0,0-.19.44l.81,3-1,.58a.29.29,0,0,1-.39-.09h0l-.69-1.17a.29.29,0,0,1,.09-.39h0l.54-.32a.26.26,0,0,0,.1-.34h0l-.54-.91-1,.58a1.31,1.31,0,0,0-.46,1.79h0l1,1.65a1.31,1.31,0,0,0,1.79.46h0l1.76-1A.39.39,0,0,0,18.05,81.27Z" transform="translate(0 0)"/><path class="cls-1" d="M82,90.57a.24.24,0,0,0-.32-.06h0l-.87.63,3.28,4.49A.28.28,0,0,1,84,96l-1,.74a.27.27,0,0,1-.39,0h0l-.36-.5a.24.24,0,0,0-.34,0h0l-.86.63.65.89a1.31,1.31,0,0,0,1.83.3h0L85,97a1.31,1.31,0,0,0,.3-1.83h0Z" transform="translate(0 0)"/><path class="cls-1" d="M38.6,94.91l-1-.49-2.46,2-.62-.32,1.22-2.35a.25.25,0,0,0-.11-.34h0l-1-.49L31.58,99a.24.24,0,0,0,.1.32l1,.49L34,97.25l.62.32-.19,3a.25.25,0,0,0,.13.22l1.14.59.23-3.88,2.75-2.2a.25.25,0,0,0,0-.34Z" transform="translate(0 0)"/><path class="cls-1" d="M75.71,94.59a.24.24,0,0,0-.31-.14h0l-1,.41L76,98.77l-3.5-2.94a.3.3,0,0,0-.29,0l-1.19.5,2.66,6.34a.24.24,0,0,0,.31.13l1-.42-1.88-4.49,4.09,3.4a.27.27,0,0,0,.3,0l.88-.37-.14-.33Z" transform="translate(0 0)"/><path class="cls-1" d="M89.73,84.94a1.31,1.31,0,0,0-1.85,0h0l-1.4,1.44a1.31,1.31,0,0,0,0,1.85h0l3.19,3.1a1.31,1.31,0,0,0,1.85,0h0l1.4-1.44a1.31,1.31,0,0,0,0-1.85h0Zm2.11,4.27-1,1a.28.28,0,0,1-.4,0h0L87.58,87.5a.28.28,0,0,1,0-.4h0l1-1a.28.28,0,0,1,.4,0h0l2.84,2.76a.3.3,0,0,1,0,.34Z" transform="translate(0 0)"/><path class="cls-1" d="M94.15,76.79a.24.24,0,0,0-.33-.07.23.23,0,0,0-.07.07l-.58.92,1.32,2.15-2.31-.24a.3.3,0,0,0-.3.14l-.68,1.08,4.36.46L98,82.85a.26.26,0,0,0,.35-.08l.55-.88-2.69-1.7Z" transform="translate(0 0)"/></g></svg>